# xmcd
#
# Track frame offsets:
# 150
# 25801
# 40094
# 65958
# 83550
# 94717
# 112069
# 135466
# 150253
# 167782
#
# Disc length: 2469 seconds
#
#
# Revision: 0
# Processed by: cddbd v1.5.2PL0 Copyright (c) Steve Scherf et al.
# Submitted via: FreeRIP 2.60 
#
DISCID=7709a30a
DTITLE=LADYSMITH BLACK MAMBAZO ET. AL. - GREAT SA PERFORMERS-LADYSMITH BLACK MAMBAZO
DYEAR=2011
DGENRE=Tribal
TTITLE0=KNOCKIN' ON HEAVENS DOOR
TTITLE1=RAIN,RAIN BEAUTIFUL RAIN
TTITLE2=DIAMONDS ON THE SOLES OF HER SHOES
TTITLE3=HOMELESS
TTITLE4=WE NHIZIYO YAMI
TTITLE5=CHAIN GANG
TTITLE6=KANGIVUMANGA
TTITLE7=VULAN'AMASANGO
TTITLE8=WORLD IN UNION
TTITLE9=SWING LOW SWEET CHARIOT
EXTD=GALLO RECORDS ZA, WITH VARIOUS OTHER ARTISTS, LADYSMITH BLACK MAMBAZO COLLABORATES WITH PAUL SIMONAND VARIOUS OTHER ARTISTS, GRAMMY AWARD WINNERS
EXTT0=
EXTT1=
EXTT2=
EXTT3=
EXTT4=
EXTT5=
EXTT6=
EXTT7=
EXTT8=
EXTT9=
PLAYORDER=
